<svg version="1.0" xmlns="http://www.w3.org/2000/svg"
 width="145.000000pt" height="134.000000pt" viewBox="0 0 145.000000 134.000000"
 preserveAspectRatio="xMidYMid meet">

<g transform="translate(0.000000,134.000000) scale(0.100000,-0.100000)"
fill="#000000" stroke="none">
<path d="M440 1285 l0 -45 40 0 c30 0 47 -7 72 -30 l33 -31 -25 -16 c-35 -23
-382 -373 -462 -466 -82 -96 -98 -147 -74 -229 16 -57 65 -112 123 -142 50
-25 130 -21 192 10 28 15 53 25 55 23 2 -2 18 -32 36 -67 39 -73 79 -117 185
-201 114 -91 102 -90 192 -22 113 85 174 149 212 222 19 35 35 66 37 68 2 2
27 -8 55 -23 62 -31 142 -35 192 -10 58 30 107 85 123 142 24 82 8 133 -74
229 -80 93 -427 443 -462 466 l-25 16 33 31 c25 23 42 30 72 30 l40 0 0 45 0
45 -44 0 c-64 0 -93 -14 -157 -76 -75 -71 -93 -71 -168 0 -64 62 -93 76 -157
76 l-44 0 0 -45z m356 -190 c66 -19 128 -67 162 -123 25 -44 27 -56 30 -179
l4 -133 -267 0 -267 0 4 133 c3 128 4 136 33 183 17 28 52 63 79 82 79 53 137
63 222 37z m-432 -427 c-3 -95 -11 -184 -18 -198 -27 -59 -115 -87 -176 -55
-60 31 -80 126 -38 181 20 28 230 244 236 244 1 0 0 -78 -4 -172z m852 45
c129 -142 143 -168 119 -230 -20 -52 -63 -83 -116 -83 -42 0 -98 34 -116 70
-15 30 -18 360 -4 360 5 0 58 -53 117 -117z m-226 -196 c0 -29 -5 -58 -12 -65
-17 -17 -489 -17 -506 0 -7 7 -12 36 -12 65 l0 53 265 0 265 0 0 -53z m-50
-180 c0 -20 -91 -117 -154 -167 -54 -41 -58 -42 -84 -29 -38 20 -192 174 -192
193 0 14 25 16 215 16 170 0 215 -3 215 -13z"/>
</g>
</svg>
