<?xml version="1.0" encoding="UTF-8"?>
<svg xmlns="http://www.w3.org/2000/svg" id="icons" width="512" height="512" viewBox="0 0 64 64"><g><path d="M34.5,17.5a1,1,0,0,1,0-2,1.5003,1.5003,0,0,0,.58008-2.88379,1.00046,1.00046,0,0,1,.77734-1.84375A3.50089,3.50089,0,0,1,34.5,17.5Z"/><path d="M35.46875,12.69531a1.0031,1.0031,0,0,1-.32617-.05468l-3.46875-1.19532a1,1,0,0,1,.65234-1.89062L35.79492,10.75a1,1,0,0,1-.32617,1.94531Z"/><path d="M29.5,17.5a3.50089,3.50089,0,0,1-1.35742-6.72754,1.00046,1.00046,0,1,1,.77734,1.84375A1.5003,1.5003,0,0,0,29.5,15.5a1,1,0,0,1,0,2Z"/><path d="M28.53125,12.69531A1,1,0,0,1,28.20508,10.75l3.46875-1.19531a1,1,0,0,1,.65234,1.89062l-3.46875,1.19532A1.0031,1.0031,0,0,1,28.53125,12.69531Z"/><path d="M34.5,17.5h-5a1,1,0,0,1,0-2h5a1,1,0,0,1,0,2Z"/><path d="M32,25.5a5,5,0,1,1,5-5A5.00588,5.00588,0,0,1,32,25.5Zm0-8a3,3,0,1,0,3,3A3.00328,3.00328,0,0,0,32,17.5Z"/><path d="M32,29.5a7,7,0,1,1,7-7A7.00849,7.00849,0,0,1,32,29.5Zm0-12a5,5,0,1,0,5,5A5.00588,5.00588,0,0,0,32,17.5Z"/><path d="M40.999,44.5a.99985.99985,0,0,1-.98925-.8584l-3-21a1.0003,1.0003,0,0,1,1.98046-.2832l3,21A.99833.99833,0,0,1,40.999,44.5Z"/><path d="M43.999,44.5a.99985.99985,0,0,1-.98925-.8584l-1.71387-12a1.00031,1.00031,0,0,1,1.98047-.2832l1.71386,12A.99833.99833,0,0,1,43.999,44.5Z"/><path d="M38,47.5a1,1,0,0,1,0-2,2.0026,2.0026,0,0,0,2-2,1,1,0,0,1,2,0A4.004,4.004,0,0,1,38,47.5Z"/><path d="M38.001,47.5a.99556.99556,0,0,1-.80078-.40039l-6-8a.99961.99961,0,1,1,1.5996-1.19922l6,8A1.0001,1.0001,0,0,1,38.001,47.5Z"/><path d="M23.001,44.5a.99833.99833,0,0,1-.99121-1.1416l3-21a1.0003,1.0003,0,1,1,1.98046.2832l-3,21A.99985.99985,0,0,1,23.001,44.5Z"/><path d="M26,47.5a4.004,4.004,0,0,1-4-4,1,1,0,0,1,2,0,2.0026,2.0026,0,0,0,2,2,1,1,0,0,1,0,2Z"/><path d="M25.999,47.5a1.0001,1.0001,0,0,1-.79882-1.59961l6-8a.99961.99961,0,1,1,1.5996,1.19922l-6,8A.99556.99556,0,0,1,25.999,47.5Z"/><path d="M32,39.5a.99943.99943,0,0,1-1-1v-10a1,1,0,0,1,2,0v10A.99943.99943,0,0,1,32,39.5Z"/><path d="M32,63.5c-5.17676,0-7-13.999-7-17a1,1,0,0,1,2,0c0,4.68555,2.417,15,5,15s5-10.31445,5-15a1,1,0,0,1,2,0C39,49.501,37.17676,63.5,32,63.5Z"/><path d="M35.58008,59.5H28.41992a1,1,0,0,1,0-2h7.16016a1,1,0,1,1,0,2Z"/><path d="M36.83594,55.5H27.16406a1,1,0,0,1,0-2h9.67188a1,1,0,0,1,0,2Z"/><path d="M37.626,51.5H26.374a1,1,0,0,1,0-2H37.626a1,1,0,0,1,0,2Z"/><path d="M38,47.5H26a1,1,0,0,1,0-2H38a1,1,0,0,1,0,2Z"/><path d="M35,43.5H29a1,1,0,0,1,0-2h6a1,1,0,0,1,0,2Z"/><path d="M48.999,48.5a.99656.99656,0,0,1-.624-.21875l-5-4a1.00049,1.00049,0,1,1,1.25-1.5625l5,4A1.00007,1.00007,0,0,1,48.999,48.5Z"/><path d="M42.28613,32.5a.98824.98824,0,0,1-.30273-.04687l-3.14356-1a1,1,0,1,1,.60547-1.90625l3.14356,1A1,1,0,0,1,42.28613,32.5Z"/><path d="M44,28.0459a.99863.99863,0,0,1-.30371-.04688l-5.60547-1.78418a1.00034,1.00034,0,0,1,.60742-1.90625l5.60547,1.78418A1.00014,1.00014,0,0,1,44,28.0459Z"/><path d="M51.001,36.5a.998.998,0,0,1-.77149-.3623l-7-8.45411a1.00017,1.00017,0,0,1,1.541-1.27539l7,8.4541A1,1,0,0,1,51.001,36.5Z"/><path d="M37.67285,21.541a1,1,0,0,1-.69043-1.72364l6.32715-6.041a1.00017,1.00017,0,0,1,1.38086,1.44726l-6.32715,6.041A.99747.99747,0,0,1,37.67285,21.541Z"/><path d="M20.001,44.5a.99833.99833,0,0,1-.99121-1.1416l1.71386-12a1.00031,1.00031,0,0,1,1.98047.2832l-1.71387,12A.99985.99985,0,0,1,20.001,44.5Z"/><path d="M15.001,48.5a1.00007,1.00007,0,0,1-.626-1.78125l5-4a1.00049,1.00049,0,0,1,1.25,1.5625l-5,4A.99656.99656,0,0,1,15.001,48.5Z"/><path d="M21.71387,32.5a1,1,0,0,1-.30274-1.95312l3.14356-1a1,1,0,1,1,.60547,1.90625l-3.14356,1A.98824.98824,0,0,1,21.71387,32.5Z"/><path d="M20,28.0459a1.00014,1.00014,0,0,1-.30371-1.95313l5.60547-1.78418a1.00034,1.00034,0,0,1,.60742,1.90625L20.30371,27.999A.99863.99863,0,0,1,20,28.0459Z"/><path d="M12.999,36.5a1,1,0,0,1-.76953-1.6377l7-8.4541a1.00017,1.00017,0,0,1,1.541,1.27539l-7,8.45411A.998.998,0,0,1,12.999,36.5Z"/><path d="M26.32715,21.541a.99747.99747,0,0,1-.69043-.27637l-6.32715-6.041a1.00017,1.00017,0,1,1,1.38086-1.44726l6.32715,6.041a1,1,0,0,1-.69043,1.72364Z"/><path d="M38,8.5H26a.99943.99943,0,0,1-1-1v-6A.99992.99992,0,0,1,26.55469.668L29,2.29785,31.44531.668a.99746.99746,0,0,1,1.10938,0L35,2.29785,37.44531.668A.99992.99992,0,0,1,39,1.5v6A.99943.99943,0,0,1,38,8.5Zm-11-2H37V3.36816L35.55469,4.332a.99746.99746,0,0,1-1.10938,0L32,2.70215,29.55469,4.332a.99746.99746,0,0,1-1.10938,0L27,3.36816Z"/></g></svg>
